<?xml version="1.0" encoding="UTF-8"?>
<svg id="Camada_2" data-name="Camada 2" xmlns="http://www.w3.org/2000/svg" viewBox="0 0 546.56 216.45">
  <defs>
    <style>
      .cls-1 {
        font-family: SpaceGrotesk-Regular, 'Space Grotesk';
        font-size: 22.87px;
        font-variation-settings: 'wght' 400;
      }

      .cls-1, .cls-2 {
        fill: #e8ffae;
      }

      .cls-3 {
        letter-spacing: .17em;
      }

      .cls-4 {
        letter-spacing: .13em;
      }

      .cls-5 {
        letter-spacing: .2em;
      }
    </style>
  </defs>
  <g id="Camada_1-2" data-name="Camada 1">
    <g>
      <g>
        <path class="cls-2" d="M78.98,104.6c-7.63-7.59-14.42-14.03-22.48-20.23-18.13-13.95-39.66-17.41-56.13-.08,28.81,18.35,44.85,49.71,40.48,83.49l-40.84.28V.02s47.98,47.97,47.98,47.97c11.55,11.55,22.32,22.66,34.51,33.45,9.76,7.99,21.28,13.34,34.02,13.73,10.2-.33,18.55-5.2,26.97-10.66l.08,84.39-64.59-64.3Z"/>
        <path class="cls-2" d="M100.33.39l31.31-.16,12.02-.23.03,84.05c-15.53-9.3-27.23-22.58-35.26-38.27-6.41-14.84-9.25-29.82-8.1-45.4Z"/>
      </g>
      <text class="cls-1" transform="translate(439.65 210.18)"><tspan class="cls-5" x="0" y="0">DIGI</tspan><tspan class="cls-4" x="59.72" y="0">T</tspan><tspan class="cls-5" x="76.03" y="0">A</tspan><tspan class="cls-3" x="95.01" y="0">L</tspan></text>
      <g>
        <path class="cls-2" d="M190.36,113.62v4.56c0,14.45,11.41,31.94,33.46,31.94,16.23,0,32.2-7.1,32.2-21.04h25.86c0,23.07-24.08,44.62-54.51,44.62h-7.35c-35.24,0-55.78-29.41-55.78-55.52v-23.32c0-26.11,22.06-56.03,57.3-56.03h4.31c15.21,0,29.66,6.08,40.06,15.97,17.49,16.73,17.24,32.7,17.24,55.27v3.55h-92.79ZM257.8,91.82c0-17.75-15.21-29.16-32.2-29.16-20.54,0-33.47,15.46-34.99,29.16h67.18Z"/>
        <path class="cls-2" d="M324.73,41.37l29.41,44.62,27.13-44.62h29.66l-43.1,65.41,42.85,64.9h-29.66l-29.41-44.62-26.37,44.62h-29.66l42.59-64.9-43.1-65.41h29.66Z"/>
        <path class="cls-2" d="M478.36,173.71c-35.24,0-55.78-29.41-55.78-55.52v-23.32c0-26.11,22.06-56.03,57.3-56.03h9.38c35.24,0,57.3,29.92,57.3,56.03v23.32c0,26.11-20.54,55.52-55.78,55.52h-12.42ZM448.7,118.19c0,21.04,17.75,31.94,35.75,31.94s36-10.9,36-31.94v-23.32c0-21.55-18-32.2-36-32.2-19.27,0-35.75,11.92-35.75,32.2v23.32Z"/>
      </g>
    </g>
  </g>
</svg>