<?xml version="1.0" encoding="UTF-8"?>
<svg id="Camada_2" data-name="Camada 2" xmlns="http://www.w3.org/2000/svg" viewBox="0 0 1171.71 278.57">
  <defs>
    <style>
      .cls-1 {
        fill: #c2ec2f;
      }
    </style>
  </defs>
  <g id="Camada_1-2" data-name="Camada 1">
    <g>
      <path class="cls-1" d="M562.12,174.51c15.55-1.73,24.64-14.1,33.41-13.18,6.43.67,10.91,4.17,13.66,9.1s3.3,11.93-.7,17.05c-15.03,19.28-47.54,22.77-71.6,18.43-27.88-5.02-49.21-25.51-55.64-52.97-2.73-11.65-2.51-23.5-.22-35.05,7.52-37.98,42.57-60.22,80.05-56,34.38,3.88,59.28,31.49,60.19,66.24.23,8.78-4.41,18.23-14.96,18.33l-86.85.77c3.18,15.21,15.08,25.08,29.78,26.81l12.9.47ZM582.58,119.47c-2.45-16.15-14.53-25.48-28.76-26.14-16.86-1.13-31.13,9.6-34.54,26.44l63.3-.3Z"/>
      <path class="cls-1" d="M356.36,188.28l-.97,63.93c-.16,10.38-10.8,16.13-20.17,15.78-9.48-.35-18.94-6.71-18.95-17.44l-.29-169.35c.46-11.78,9.03-18.64,20.4-18.1,10.25.49,17.2,8.12,17.94,19.62,13.52-17.27,31.78-23.59,52.95-20.72,23.74,3.22,43.02,18.7,51.78,41.1,10.08,25.76,7.32,57.86-9.64,79.9-12.75,15.93-30.77,25.12-51.23,24.27-16.24.58-30.35-6.04-41.83-19ZM414.59,160.87c12.65-13.81,13.17-34.4,2.89-49.19-7.85-11.29-21.18-15.69-34.72-13-11.68,2.32-21.72,11.82-25.28,24.59-4.07,14.55-.71,30.23,11.21,40.25,13.19,11.07,33.76,10.61,45.9-2.64Z"/>
      <g>
        <path class="cls-1" d="M1171.46,83.72l-5.58,18.73-28.87,87.8c-3.4,10.33-12.17,17.54-23.36,16.4-11.44,1.13-19.64-6.24-23.07-16.74l-23.36-71.6-22.29,70.61c-3.54,11.22-11.24,17.96-23.25,18.08-11.24.12-19.83-5.66-23.5-16.74l-33.26-100.13c-2.43-7.33-2.86-13.95,1.67-19.75,4.26-5.47,10.62-7.92,18.41-7.17,8.78.85,14.76,7.97,17.17,16.5l20.86,73.98,23.84-75.47c3.36-10.63,12.65-16.59,24.11-15.11,7.03.58,14.41,5.59,16.68,12.83l24.46,77.71,20.98-74.17c2.44-8.62,8.42-15.64,17.4-16.2,6.37-.56,11.64.46,15.76,4.64,3.7,3.76,6.33,8.81,5.23,15.77Z"/>
        <path class="cls-1" d="M955.73,134.56c0,40.95-33.21,74.14-74.19,74.14s-74.19-33.2-74.19-74.14,33.21-74.14,74.19-74.14,74.19,33.2,74.19,74.14ZM915.04,143.62c2.83-13.83-.57-27.81-10.63-37.23-8.48-7.95-19.74-10.29-31.8-7.53-20.66,4.73-31.74,30.39-21.59,52.98,6.28,13.98,20.45,21.34,35.41,19.34,14.02-1.88,25.53-12.44,28.62-27.56Z"/>
        <g>
          <path class="cls-1" d="M694.11,98.82l.06,88.99c0,11.21-8.14,18.84-19.33,19-9.77.14-20.09-6.59-20.15-17.43l-.45-90.16-11.07-.47c-9.1-.39-14.66-7.26-15.32-15.28s3.97-16.07,12.52-17.88l13.59-.52.24-16.95,1.61-9.5c3.27-19.27,17.86-33.85,37.26-37.29,9.14-1.62,19.28-2.11,27.87.61,8.79,2.79,13.82,10.21,12.92,18.67-.81,7.6-7.87,15.75-16.51,14.96-5.9-.54-12.03-1.13-16.98,3.01-4.64,3.87-5.7,10.43-5.53,16.46l.27,10.02,22.87.38c9.94,1.44,14.93,11.85,12.35,21.54-1.81,6.81-9.06,11.77-16.22,11.79l-19.99.07Z"/>
          <path class="cls-1" d="M767.06,206.85c-11.78-.15-20.34-8.11-20.32-20.09l.3-168.39c.02-9.87,7.82-16.11,16.53-17.55,10.18-1.68,22.93,4.65,22.93,16.46l.02,172.26c0,11.16-9.84,17.44-19.46,17.32Z"/>
        </g>
      </g>
      <g>
        <path class="cls-1" d="M123.82,29.29l-18.45-.08c-16.19,1.23-30.65,7.52-43.65,17.36-20.81,15.75-34.12,42.28-34.11,68.61l.04,119.23c0,7.97,4.89,14.35,11.89,16.3,4.76,1.32,9.54,1.27,13.87-1.34,3.23-1.94,7.05-6.66,7.14-11.44.16-8.77.21-16.98.36-25.56l.5-28.57c.02-1.16-1.87-2.84.43-4.57,8.12,7.78,16.39,14.38,26.36,19.76l-.5,40.99c-2.53,24.26-24.7,41.65-48.58,38.14-14.68-2.16-27.67-10.16-33.85-24.11C2.87,248.64-.03,242.66,0,236.23L.63,106.85c.14-28.59,15.22-53.97,35.02-73.46C53.85,15.48,77.16,5.06,102.28,2.01c18.73-2.27,39.13,1.49,56.43,9.1,22.15,9.75,40.54,26.8,52.48,47.92,27.76,49.11,14.17,109.5-36.26,136.36-15.07,8.03-31.89,9.75-48.77,7.57-20.5-2.64-37.28-13.89-49.44-30.44-10.18-13.85-13.26-30.42-13.44-47.52-.15-15.25,3.17-29.27,13.44-40.79,11.45-12.83,27.39-19.35,45.18-16.5,14.73,2.36,29.49,12.41,35.88,27.78,2.55,6.14,4.52,13.59,4.08,20.06-1.5,22.28-18.27,38.51-40.86,41.13-8.24.96-15.35-2.72-24.45-5.2,13.34,25.78,44.78,32.17,68.59,18.31,11.14-6.48,19.43-14.98,25.48-26.75,5.58-10.86,8.76-23.44,7.69-35.99-2.31-27.09-16.44-51.43-39.48-65.37-10.8-6.53-21.92-11.4-35.01-12.41Z"/>
        <g>
          <path class="cls-1" d="M248.89,186.63l-.26-20.01v-49.18s.07-23.19.07-23.19c.02-4.94-.57-9.48.26-14.32,1.75-10.12,9.04-16.38,19.49-16.72,10.2-.33,20.08,6.51,20.08,17.96v107.55c-.01,11.19-9.13,17.78-19.21,17.92-11.68.16-20.28-7.7-20.44-20.01Z"/>
          <ellipse class="cls-1" cx="268.81" cy="24.09" rx="24.09" ry="24.08"/>
        </g>
      </g>
    </g>
  </g>
</svg>