<?xml version="1.0" encoding="UTF-8"?>
<svg id="Camada_2" data-name="Camada 2" xmlns="http://www.w3.org/2000/svg" viewBox="0 0 1489.02 1489.02">
  <defs>
    <style>
      .cls-1 {
        fill: #1a1a1a;
      }

      .cls-2 {
        fill: #c6f432;
      }
    </style>
  </defs>
  <g id="Camada_1-2" data-name="Camada 1">
    <g>
      <rect class="cls-2" width="1489.02" height="1489.02"/>
      <path class="cls-1" d="M698.36,772.68c9.06,22.94,27.45,42.25,49.7,55.08,51.82,29.9,113.42,20.65,159.43-15.72,44.24-34.98,69.1-87.8,68.72-144.51-.76-110.92-83.26-203.14-192.17-220.35-146.28-23.12-270.65,88.84-270.54,234.94l.23,318.18c.02,26.15,19.61,45.55,44.28,46.67,25.08,1.14,47.27-18.36,47.38-45.06l.59-151.37c22.25,21.03,44.12,40.01,70.8,54.08l.18,86.9c.04,17.95-2.76,34.44-8.96,50.92-19.19,51.02-69.76,80.23-123.72,72.87-63.71-8.69-102.11-59.99-102.05-124.02l.28-314.64c.13-140.98,104.31-270.22,242.1-297.96,122.74-24.71,245.91,26.86,314.61,131.07,76.25,115.66,61.9,275.28-50.31,360.02-52.5,39.65-118.23,55.39-182.19,41.48-89.99-19.56-152.78-97.51-154.7-189.17-.51-24.33-1.44-46,4.99-69.54,13.2-48.35,49.08-87.08,98.75-99.38,51.1-12.66,106.09,7.26,136.83,49.68,26.25,36.24,31.25,82.05,10.42,122.52-30.62,59.48-107.5,79.65-162.53,46.2l-2.1,1.1ZM699.11,770.2c-.62-1.22-2.31-.79-2.16.71l2.16-.71Z"/>
    </g>
  </g>
</svg>