<?xml version="1.0" encoding="UTF-8"?>
<svg id="Camada_2" data-name="Camada 2" xmlns="http://www.w3.org/2000/svg" viewBox="0 0 1666.03 323.07">
  <defs>
    <style>
      .cls-1 {
        fill: #c4f52d;
      }

      .cls-2 {
        fill: #c3f62c;
      }

      .cls-3 {
        fill: #caea57;
      }

      .cls-4 {
        fill: #c4f42e;
      }

      .cls-5 {
        fill: #c5f52e;
      }

      .cls-6 {
        fill: #c5f42d;
      }

      .cls-7 {
        fill: #c4f52e;
      }

      .cls-8 {
        fill: #c4f42d;
      }

      .cls-9 {
        fill: #c3f42d;
      }

      .cls-10 {
        fill: #c6f432;
      }
    </style>
  </defs>
  <g id="Camada_1-2" data-name="Camada 1">
    <g>
      <g>
        <path class="cls-5" d="M466.62,76.67c-3.37-24.61-17.66-45.75-40.16-56.83-11.02-5.42-23.17-8.83-35.7-8.82l-83.94.07c-10.25,0-18.76,9.79-18.75,20.43l.14,200.2c0,13.52,11.95,22.46,23.83,22.61,15.37.19,25.24-11.13,25.27-25.83l.1-55.37,55.9-.6c30.36-1.95,56.12-19.23,67.84-46.66,6.74-15.78,7.79-32.23,5.46-49.21ZM383.63,127.61l-46.27-.25-.23-71.49,51.91.45c17.42.15,29.33,15.58,29.74,33.05,1.9,22.18-13.83,38.35-35.15,38.23Z"/>
        <path class="cls-7" d="M517.23,253.95c-14.73,1.22-25.59-9.23-25.61-23.62l-.22-133.01c-.02-12.79,8.28-22.03,20.55-23.57,14.45-1.81,26.64,8.48,26.61,23.33l-.24,134.72c-.02,12.07-8.97,21.15-21.08,22.15Z"/>
        <ellipse class="cls-9" cx="514.94" cy="29.25" rx="29.27" ry="29.25"/>
        <path class="cls-4" d="M950.93,158.23c-.08-9.52-2.04-17.82-4.81-26.74-10.69-34.48-41.17-58.19-77.55-59.58-26.45-1.01-51.89,8.34-69.75,27.98-30.96,34.05-33.21,86.22-4.7,122.3,33.14,41.93,100.9,44.73,135.75,8.92,9.28-9.53,9.11-23.38-.3-32.36-8.43-8.05-20.67-7.57-29.04,1.11-9.41,9.75-21.14,13.67-34.24,13.83-22.23.28-41.67-13.96-46.1-36.09l112.89-.09c10.69,0,17.93-9.13,17.84-19.28ZM821.07,143.05c5.62-19.76,23.5-32.47,44.07-31.98,19.01.04,35.54,10.96,40.98,31.59l-85.05.39Z"/>
        <path class="cls-1" d="M735.09,100.23c-29.28-35.54-85.17-39.72-116.79-4.81-.92-12.9-9.06-21-20.84-21.74-14.15-.89-24.7,8.89-24.78,23.59l-.03,200.26c0,14.16,8.55,24.54,21.99,25.48,12.6.88,24.86-7.86,24.89-22.33l.17-69.07c12.6,15.08,30.43,23.08,50.08,24.06,25.26,1.26,47.97-8.46,64.31-28.06,29.79-34.91,30.18-91.96,1-127.37ZM694.21,199.19c-17.04,15.2-43.4,14.81-59.89-.68-20.29-19.05-20.02-52.27.49-70.94,12.78-11.64,30.67-14.49,47.2-7.94,14.16,5.61,24.95,19.69,27,36.53,1.93,15.86-2.09,31.7-14.79,43.03Z"/>
        <path class="cls-5" d="M1101.15,112.32c12.64.6,20.84,9.97,21.56,21.22.69,10.86-6.46,23.16-18.85,23.26l-77.26.62-.33,74.21c-.06,13.52-11.84,22.87-24.95,22.56-13.05,0-24.04-9.8-24.03-23.57l.11-200.19c0-11.97,10.91-19.66,21.62-19.66l114.09.07c9.91,0,17.68,5.8,20.67,15.04,4.41,13.64-3.56,27.94-18.19,29.97l-89.06-.05v56.54s74.62-.02,74.62-.02Z"/>
        <path class="cls-2" d="M1202.65,17.34l1.24,8.37-.03,207.06-.94,7.77c-6.38,13.3-23.45,17.95-36.08,9.25-5.88-4.05-9.65-11.29-9.64-19.18l.04-204.88c0-13.69,11.53-22.59,24.03-22.26,9.85.26,17.96,5.06,21.38,13.86Z"/>
        <path class="cls-3" d="M1202.93,240.55c-2.48-2.36.32-5.03.32-7.79l.03-207.01c0-3.37-1.77-5.97-.63-8.4,1.08,2.78,1.85,4.78,1.85,8.34v206.11c-.01,3.62-.19,5.87-1.57,8.75Z"/>
        <path class="cls-6" d="M1543.52,140.38l-29.63,99.85c-3.26,10.97-16.74,14.65-26.81,13.63-10.41-1.06-18.72-8.44-22.19-19.37l-41.88-132c-2.22-6.99-1.68-13.63,2.07-19.56,3.32-5.25,9.91-8.9,17.13-9.41,11.19-.79,21.36,5.5,24.38,16.57l26.21,96.13,26.64-93.66c3.14-11.03,10.99-18.51,21.96-19.28,10.92-.77,21.83,4.56,25.22,16.14l28.31,96.75,25.5-94.32c2.47-9.16,9.29-15.85,16.94-17.59,9.71-2.21,19.22.48,24.86,8.23,4.4,6.05,4.74,13.82,2.36,21.18l-43.31,134.07c-3.88,12-15.85,17.14-26.97,16.3-12.17-.92-20.15-9.27-23.71-21.4l-27.06-92.24Z"/>
        <path class="cls-8" d="M1321.27,70.97c-51.13,0-92.57,41.42-92.57,92.52s41.45,92.52,92.57,92.52,92.57-41.42,92.57-92.52-41.45-92.52-92.57-92.52ZM1321.33,209.52c-25.62,0-46.39-20.76-46.39-46.36s20.77-46.36,46.39-46.36,46.39,20.76,46.39,46.36-20.77,46.36-46.39,46.36Z"/>
      </g>
      <g>
        <path class="cls-10" d="M158.2,90.61l.19.17c.08-.13-.05-.26-.19-.17Z"/>
        <path class="cls-10" d="M90.45,99.64l.05-.24c-.15,0-.2.18-.05.24Z"/>
        <path class="cls-10" d="M132.15,153.8l-.24.08c.07.13.25.09.24-.08Z"/>
        <path class="cls-10" d="M0,0v254.04h254.04V0H0ZM52.51,79.3c4.38-13.02,16.04-21.89,29.71-22.7,15.17-.9,29.55,9.22,31.44,24.53.89,7.16-1.22,14.27-6.05,19.58-6.79,7.48-17.64,9.17-26.46,4.32-2.34-1.29-4.45-2.39-6.33-4.29-3.87-3.91-5.58-9.44-4.03-14.83,1.6-5.55,6.51-9.68,12.22-10.27,4.88-.51,9.51,1.53,12.21,5.73,3.97,6.17,1.67,14.58-4.53,17.97v.26c2.67.4,5.51-.29,7.95-1.7,5.68-3.28,8.18-9.64,7.25-16.01-.9-6.12-4.55-11.38-9.96-14.45-10.58-6.01-23.86-3.23-31.47,6.17-10.22,12.63-6.4,30.58,7.48,38.59l30.24,17.43c2.48,1.43,5.4.64,6.86-1.65,1.48-2.32.85-5.5-1.68-6.97l-14.35-8.36c3.22-.96,6.22-2,9.02-3.76l8.27,4.75c1.71.98,3.12,2.15,4.35,3.64,3.79,4.62,3.8,11.03.14,15.75-4.32,5.58-11.3,6.41-17.38,2.89l-29.87-17.28c-13.39-7.74-19.95-24.73-15.03-39.34ZM160.06,164.14c-.01,15.46-11.44,29.64-26.56,32.68-13.46,2.71-26.98-2.95-34.51-14.38-8.36-12.69-6.79-30.2,5.52-39.49,5.76-4.35,12.97-6.08,19.99-4.55,9.87,2.15,16.76,10.7,16.97,20.75.06,2.67.16,5.05-.55,7.63-1.45,5.3-5.38,9.55-10.83,10.9-5.61,1.39-11.64-.8-15.01-5.45-2.88-3.98-3.43-9-1.14-13.44,3.36-6.52,11.79-8.74,17.83-5.07l.23-.12c-.99-2.52-3.01-4.63-5.45-6.04-5.68-3.28-12.44-2.27-17.49,1.72-4.85,3.84-7.58,9.63-7.54,15.85.08,12.17,9.13,22.28,21.08,24.17,16.05,2.54,29.69-9.75,29.68-25.77l-.03-34.9c0-2.87-2.15-5-4.86-5.12-2.75-.12-5.19,2.01-5.2,4.94l-.06,16.6c-2.44-2.31-4.84-4.39-7.77-5.93l-.02-9.53c0-1.97.3-3.78.98-5.59,2.1-5.6,7.65-8.8,13.57-7.99,6.99.95,11.2,6.58,11.19,13.6l-.03,34.51ZM199.59,105c-6.81,13.59-22.76,20.98-36.96,14.97-6.65-2.81-11.75-8.19-13.93-15.03-3.08-9.62.88-19.86,9.49-25.07,2.28-1.38,4.29-2.66,6.88-3.34,5.32-1.4,10.96-.11,14.86,3.93,4.01,4.16,5.13,10.48,2.79,15.72-2,4.48-6.08,7.47-11.07,7.71-7.33.35-13.46-5.84-13.3-12.91l-.22-.14c-1.68,2.12-2.51,4.92-2.51,7.74,0,6.56,4.26,11.91,10.24,14.28,5.75,2.28,12.13,1.75,17.5-1.4,10.5-6.16,14.73-19.05,10.39-30.34-5.83-15.16-23.28-20.84-37.16-12.82l-30.21,17.47c-2.48,1.44-3.25,4.36-2,6.77,1.27,2.44,4.34,3.48,6.88,2.03l14.41-8.25c-.78,3.27-1.38,6.39-1.25,9.69l-8.25,4.78c-1.7.99-3.42,1.63-5.33,1.94-5.9.98-11.45-2.23-13.71-7.76-2.67-6.53.1-12.99,6.18-16.5l29.91-17.23c13.4-7.72,31.39-4.91,41.58,6.66,9.08,10.3,10.94,24.83,4.8,37.08Z"/>
      </g>
    </g>
  </g>
</svg>